<?xml version="1.0" encoding="UTF-8" standalone="no"?>
<!-- Created with Inkscape (http://www.inkscape.org/) -->

<svg
   xmlns:dc="http://purl.org/dc/elements/1.1/"
   xmlns:cc="http://creativecommons.org/ns#"
   xmlns:rdf="http://www.w3.org/1999/02/22-rdf-syntax-ns#"
   xmlns:svg="http://www.w3.org/2000/svg"
   xmlns="http://www.w3.org/2000/svg"
   xmlns:xlink="http://www.w3.org/1999/xlink"
   xmlns:sodipodi="http://sodipodi.sourceforge.net/DTD/sodipodi-0.dtd"
   xmlns:inkscape="http://www.inkscape.org/namespaces/inkscape"
   width="744.09448819"
   height="1052.3622047"
   id="svg3055"
   version="1.1"
   inkscape:version="0.48.4 r9939"
   sodipodi:docname="markers.svg">
  <defs
     id="defs3057">
    <linearGradient
       xlink:href="#a"
       id="c"
       gradientUnits="userSpaceOnUse"
       gradientTransform="translate(-259.29124,-43.736452)"
       x1="445.30099"
       y1="541.28601"
       x2="445.30099"
       y2="503.72" />
    <linearGradient
       id="a">
      <stop
         offset="0"
         stop-color="#126fc6"
         id="stop12" />
      <stop
         offset="1"
         stop-color="#4c9cd1"
         id="stop14" />
    </linearGradient>
    <linearGradient
       xlink:href="#b"
       id="d"
       gradientUnits="userSpaceOnUse"
       gradientTransform="translate(-167.71124,-43.737452)"
       x1="351.74799"
       y1="522.77399"
       x2="351.74799"
       y2="503.72101" />
    <linearGradient
       id="b">
      <stop
         offset="0"
         stop-color="#2e6c97"
         id="stop7" />
      <stop
         offset="1"
         stop-color="#3883b7"
         id="stop9" />
    </linearGradient>
    <linearGradient
       xlink:href="#a-9"
       id="c-9"
       gradientUnits="userSpaceOnUse"
       gradientTransform="translate(-246.63155,6.6178184)"
       x1="445.30099"
       y1="541.28601"
       x2="445.30099"
       y2="503.72" />
    <linearGradient
       id="a-9">
      <stop
         offset="0"
         stop-color="#126fc6"
         id="stop12-5" />
      <stop
         offset="1"
         stop-color="#4c9cd1"
         id="stop14-7" />
    </linearGradient>
    <linearGradient
       xlink:href="#b-1"
       id="d-6"
       gradientUnits="userSpaceOnUse"
       gradientTransform="translate(-155.05155,6.6168184)"
       x1="351.74799"
       y1="522.77399"
       x2="351.74799"
       y2="503.72101" />
    <linearGradient
       id="b-1">
      <stop
         offset="0"
         stop-color="#2e6c97"
         id="stop7-2" />
      <stop
         offset="1"
         stop-color="#3883b7"
         id="stop9-4" />
    </linearGradient>
    <linearGradient
       xlink:href="#a-6"
       id="c-4"
       gradientUnits="userSpaceOnUse"
       gradientTransform="translate(-224.15704,55.407408)"
       x1="445.30099"
       y1="541.28601"
       x2="445.30099"
       y2="503.72" />
    <linearGradient
       id="a-6">
      <stop
         offset="0"
         stop-color="#126fc6"
         id="stop12-2" />
      <stop
         offset="1"
         stop-color="#4c9cd1"
         id="stop14-6" />
    </linearGradient>
    <linearGradient
       xlink:href="#b-4"
       id="d-4"
       gradientUnits="userSpaceOnUse"
       gradientTransform="translate(-132.57704,55.406408)"
       x1="351.74799"
       y1="522.77399"
       x2="351.74799"
       y2="503.72101" />
    <linearGradient
       id="b-4">
      <stop
         offset="0"
         stop-color="#2e6c97"
         id="stop7-5" />
      <stop
         offset="1"
         stop-color="#3883b7"
         id="stop9-6" />
    </linearGradient>
  </defs>
  <sodipodi:namedview
     id="base"
     pagecolor="#ffffff"
     bordercolor="#666666"
     borderopacity="1.0"
     inkscape:pageopacity="0.0"
     inkscape:pageshadow="2"
     inkscape:zoom="3.5150941"
     inkscape:cx="176.60734"
     inkscape:cy="572.95297"
     inkscape:document-units="px"
     inkscape:current-layer="svg3055"
     showgrid="false"
     inkscape:window-width="1920"
     inkscape:window-height="1125"
     inkscape:window-x="-9"
     inkscape:window-y="-9"
     inkscape:window-maximized="1" />
  <metadata
     id="metadata3060">
    <rdf:RDF>
      <cc:Work
         rdf:about="">
        <dc:format>image/svg+xml</dc:format>
        <dc:type
           rdf:resource="http://purl.org/dc/dcmitype/StillImage" />
        <dc:title></dc:title>
      </cc:Work>
    </rdf:RDF>
  </metadata>
  <rect
     style="fill:#ffffff"
     y="464.12555"
     x="179.83376"
     height="14.5"
     width="12.625"
     id="rect44" />
  <path
     style="fill:#917f3e;stroke:#384b40;stroke-width:1.10000002000000000;stroke-linecap:round;fill-opacity:1;stroke-opacity:1"
     inkscape:connector-curvature="0"
     d="M 186.09876,460.16255 C 179.52576,460.16255 174.05476,465.85355 174.05476,472.02855 174.05476,474.80655 175.61876,478.33655 176.74876,480.77455 L 186.05476,498.64655 195.31676,480.77455 C 196.44676,478.33655 198.05476,474.98355 198.05476,472.02855 198.05476,465.85355 192.67176,460.16255 186.09876,460.16255 z M 186.09876,467.31755 C 188.68276,467.33455 190.77776,469.43955 190.77776,472.02755 190.77776,474.61555 188.68276,476.69055 186.09876,476.70655 183.51476,476.68955 181.41976,474.61655 181.41976,472.02755 181.41976,469.43955 183.51476,467.33455 186.09876,467.31755 z"
     id="path46-3"
     inkscape:export-filename="N:\[Projects]\memorial\markers\marker-1.png"
     inkscape:export-xdpi="90"
     inkscape:export-ydpi="90" />
  <path
     style="fill:none;stroke:#ffffff;stroke-width:1.10000002;stroke-linecap:round;stroke-opacity:0.122"
     inkscape:connector-curvature="0"
     d="M 186.08576,461.26955 C 180.14176,461.26955 175.14776,466.48855 175.14776,472.01955 175.14776,474.37855 176.59076,477.85155 177.71076,480.26955 L 177.74176,480.30055 186.05476,496.26955 194.30476,480.30055 194.33576,480.26955 C 195.47076,477.82155 196.96076,474.56355 196.96076,472.01955 196.96076,466.48155 192.02976,461.26955 186.08576,461.26955 z M 186.08576,466.23855 C 189.25376,466.25955 191.86676,468.83955 191.86676,472.01955 191.86676,475.19955 189.25376,477.78055 186.08576,477.80055 182.91776,477.78055 180.33576,475.19055 180.33576,472.01955 180.33576,468.84755 182.91776,466.25855 186.08576,466.23855 z"
     id="path70" />
  <rect
     style="fill:#ffffff"
     y="514.47986"
     x="192.49344"
     height="14.5"
     width="12.625"
     id="rect44-4" />
  <path
     style="fill:#953833;stroke:#384b40;stroke-width:1.10000002000000000;stroke-linecap:round;fill-opacity:1;stroke-opacity:1"
     inkscape:connector-curvature="0"
     d="M 198.75845,510.51682 C 192.18545,510.51682 186.71445,516.20782 186.71445,522.38282 186.71445,525.16082 188.27845,528.69082 189.40845,531.12882 L 198.71445,549.00082 207.97645,531.12882 C 209.10645,528.69082 210.71445,525.33782 210.71445,522.38282 210.71445,516.20782 205.33145,510.51682 198.75845,510.51682 z M 198.75845,517.67182 C 201.34245,517.68882 203.43745,519.79382 203.43745,522.38182 203.43745,524.96982 201.34245,527.04482 198.75845,527.06082 196.17445,527.04382 194.07945,524.97082 194.07945,522.38182 194.07945,519.79382 196.17445,517.68882 198.75845,517.67182 z"
     id="path46-4"
     inkscape:export-filename="N:\[Projects]\memorial\markers\marker-2.png"
     inkscape:export-xdpi="90"
     inkscape:export-ydpi="90" />
  <path
     style="fill:none;stroke:#ffffff;stroke-width:1.10000002;stroke-linecap:round;stroke-opacity:0.122"
     inkscape:connector-curvature="0"
     d="M 198.74545,511.62382 C 192.80145,511.62382 187.80745,516.84282 187.80745,522.37382 187.80745,524.73282 189.25045,528.20582 190.37045,530.62382 L 190.40145,530.65482 198.71445,546.62382 206.96445,530.65482 206.99545,530.62382 C 208.13045,528.17582 209.62045,524.91782 209.62045,522.37382 209.62045,516.83582 204.68945,511.62382 198.74545,511.62382 z M 198.74545,516.59282 C 201.91345,516.61382 204.52645,519.19382 204.52645,522.37382 204.52645,525.55382 201.91345,528.13482 198.74545,528.15482 195.57745,528.13482 192.99545,525.54482 192.99545,522.37382 192.99545,519.20182 195.57745,516.61282 198.74545,516.59282 z"
     id="path70-5" />
  <rect
     style="fill:#ffffff"
     y="563.26941"
     x="214.96796"
     height="14.5"
     width="12.625"
     id="rect44-3" />
  <path
     style="fill:#4d5b6a;stroke:#384b40;stroke-width:1.10000002000000000;stroke-linecap:round;fill-opacity:1;stroke-opacity:1"
     inkscape:connector-curvature="0"
     d="M 221.23296,559.30641 C 214.65996,559.30641 209.18896,564.99741 209.18896,571.17241 209.18896,573.95041 210.75296,577.48041 211.88296,579.91841 L 221.18896,597.79041 230.45096,579.91841 C 231.58096,577.48041 233.18896,574.12741 233.18896,571.17241 233.18896,564.99741 227.80596,559.30641 221.23296,559.30641 z M 221.23296,566.46141 C 223.81696,566.47841 225.91196,568.58341 225.91196,571.17141 225.91196,573.75941 223.81696,575.83441 221.23296,575.85041 218.64896,575.83341 216.55396,573.76041 216.55396,571.17141 216.55396,568.58341 218.64896,566.47841 221.23296,566.46141 z"
     id="path46-8"
     inkscape:export-filename="N:\[Projects]\memorial\markers\marker-3.png"
     inkscape:export-xdpi="90"
     inkscape:export-ydpi="90" />
  <path
     style="fill:none;stroke:#ffffff;stroke-width:1.10000002;stroke-linecap:round;stroke-opacity:0.122"
     inkscape:connector-curvature="0"
     d="M 221.21996,560.41341 C 215.27596,560.41341 210.28196,565.63241 210.28196,571.16341 210.28196,573.52241 211.72496,576.99541 212.84496,579.41341 L 212.87596,579.44441 221.18896,595.41341 229.43896,579.44441 229.46996,579.41341 C 230.60496,576.96541 232.09496,573.70741 232.09496,571.16341 232.09496,565.62541 227.16396,560.41341 221.21996,560.41341 z M 221.21996,565.38241 C 224.38796,565.40341 227.00096,567.98341 227.00096,571.16341 227.00096,574.34341 224.38796,576.92441 221.21996,576.94441 218.05196,576.92441 215.46996,574.33441 215.46996,571.16341 215.46996,567.99141 218.05196,565.40241 221.21996,565.38241 z"
     id="path70-0" />
  <text
     sodipodi:linespacing="125%"
     style="font-size:4px;line-height:125%;letter-spacing:0;word-spacing:0;font-family:Sans"
     x="234.33844"
     y="474.84631"
     font-size="4"
     letter-spacing="0"
     word-spacing="0"
     id="text48">
    <tspan
       x="234.33844"
       y="474.84631"
       id="tspan50">Use this one.</tspan>
    <tspan
       x="234.33844"
       y="479.84631"
       id="tspan52">Select it and the area around with box select.</tspan>
    <tspan
       x="234.33844"
       y="484.84631"
       id="tspan54">should be exactly 25x41 at 90dpi</tspan>
  </text>
  <text
     sodipodi:linespacing="125%"
     style="font-size:40px;line-height:125%;letter-spacing:0;word-spacing:0;font-family:Sans"
     x="234.44977"
     y="498.92444"
     font-size="40"
     letter-spacing="0"
     word-spacing="0"
     id="text56">
    <tspan
       style="font-size:4px"
       x="234.44977"
       y="498.92444"
       font-size="4"
       id="tspan58">How to do the inset border:</tspan>
    <tspan
       style="font-size:4px"
       x="234.44977"
       y="503.92444"
       font-size="4"
       id="tspan60">Delete the existing inset border. Select the background, duplicate.</tspan>
    <tspan
       style="font-size:4px"
       x="234.44977"
       y="508.92444"
       font-size="4"
       id="tspan62">Path, Dynamic offset.</tspan>
    <tspan
       style="font-size:4px"
       x="234.44977"
       y="513.92444"
       font-size="4"
       id="tspan64">Fill: None, Stroke Paint: RGBA #ffffff1f</tspan>
    <tspan
       style="font-size:4px"
       x="234.44977"
       y="518.92444"
       font-size="4"
       id="tspan66">Zoom down to the top and grab the diamond, drag it down and fiddle it untill it looks in line</tspan>
    <tspan
       style="font-size:4px"
       x="234.44977"
       y="523.92444"
       font-size="4"
       id="tspan68">with the main color layers border.</tspan>
  </text>
</svg>
